<?xml version="1.0" encoding="utf-8"?>
<!-- Generator: Adobe Illustrator 24.3.0, SVG Export Plug-In . SVG Version: 6.00 Build 0)  -->
<svg version="1.1" id="Layer_1" xmlns="http://www.w3.org/2000/svg" xmlns:xlink="http://www.w3.org/1999/xlink" x="0px" y="0px"
	 viewBox="0 0 64 64" style="enable-background:new 0 0 64 64;" xml:space="preserve">
<style type="text/css">
	.st0{fill:#3F3F3F;}
	.st1{fill:#FFFFFF;}
	.st2{fill:#E5E5E5;}
	.st3{fill:#606060;}
	.st4{font-family:'Lato-Bold';}
	.st5{font-size:2.3265px;}
	.st6{fill:none;stroke:#231F20;stroke-width:3;stroke-miterlimit:10;}
</style>
<g>
	<path class="st0" d="M7.44,12.22h4.77l6.65,11.91l7.18-11.91c0,0,4.65,0.63,4.65,4.55s0,46.91,0,46.91l-5.26-9.19V23.68
		l-6.45,11.45l-6.49-11.37v8.47l-5.05-8.79V12.22z"/>
	<path class="st0" d="M33.16,62.31V35.64h5.21v8.46l8.13-13.83H33.16V16.85c0,0,0.5-4.64,4.68-4.64s25.17,0,25.17,0l-4.31,7.56
		h-6.18l1.14-2.24H38.45v7.61h16.39L33.16,62.31z"/>
	<g>
		<g>
			<g>
				<g>
					<path class="st0" d="M23.16,53.17c-10.14-3.6-17.4-13.27-17.4-24.65c0-1.12,0.07-2.23,0.21-3.32c-0.13-0.06-1.72-3.1-1.73-3.03
						c-0.47,2.04-0.71,4.16-0.71,6.35c0,12.63,8.24,23.33,19.64,27.01V53.17z"/>
				</g>
			</g>
			<g>
				<path class="st0" d="M13.34,10.1c4.74-4.77,11.3-7.73,18.56-7.73s13.82,2.96,18.56,7.73h3.04C48.29,4,40.54,0.14,31.9,0.14
					S15.51,4,10.3,10.1H13.34z"/>
			</g>
			<path class="st0" d="M59.52,21.98h-2.3c0.54,2.09,0.83,4.29,0.83,6.55c0,10.86-6.62,20.17-16.04,24.12
				c-0.79,1.86-1.61,2.97-1.61,2.97C51.92,52,60.28,41.24,60.28,28.52C60.28,26.27,60.02,24.08,59.52,21.98z"/>
		</g>
	</g>
	<g>
		<g>
			<g>
				<path class="st3" d="M10.3,28.46V14.3l8.38,14.35l8.01-13.62c0.28-0.45,1.54,0.08,1.54,0.6V59.4l-2.81-4.92V23.68l-6.36,11.52
					l-6-10.47v8.47L10.3,28.46z"/>
			</g>
			<g>
				<path class="st3" d="M54.9,19.78l2.62-4.68H38.16c-1.39,0-2.52,1.13-2.52,2.52v9.97h14.72L35.64,53.07V35.64h-2.48v28.22
					l22.44-38.71H38.45v-7.4h15.21l-1.14,2.03H54.9z"/>
			</g>
		</g>
	</g>
	<polygon class="st0" points="0.87,12.22 5.31,12.22 5.31,19.76 	"/>
	<g>
		<text transform="matrix(1 0 0 1 59.582 11.0854)" class="st0 st4 st5">TM</text>
	</g>
</g>
</svg>
